<?xml version="1.0" standalone="no"?>
<!DOCTYPE svg PUBLIC "-//W3C//DTD SVG 20010904//EN"
 "http://www.w3.org/TR/2001/REC-SVG-20010904/DTD/svg10.dtd">
<svg version="1.0" xmlns="http://www.w3.org/2000/svg"
 width="250.000000pt" height="250.000000pt" viewBox="0 0 250.000000 250.000000"
 preserveAspectRatio="xMidYMid meet">
<metadata>
Created by potrace 1.11, written by Peter Selinger 2001-2013
</metadata>
<g transform="translate(0.000000,250.000000) scale(0.100000,-0.100000)"
fill="#000000" stroke="none">
<path d="M1190 2481 c0 -5 -12 -8 -27 -8 -138 2 -314 -79 -444 -203 -85 -80
-165 -236 -184 -355 -4 -22 -12 -85 -21 -160 -3 -27 -7 -61 -10 -75 -2 -14 -7
-43 -10 -65 -11 -70 -44 -143 -92 -202 -25 -32 -49 -60 -53 -63 -3 -3 -28 -24
-55 -46 -27 -23 -78 -66 -113 -95 -70 -59 -152 -159 -169 -206 -12 -37 3 -75
32 -79 11 -2 74 24 140 56 67 33 134 60 150 62 28 3 29 2 32 -55 3 -64 40
-225 56 -245 6 -6 8 -12 5 -12 -8 0 46 -100 84 -158 16 -24 29 -46 29 -50 0
-4 -21 -15 -46 -26 -60 -25 -143 -102 -176 -165 -15 -29 -22 -48 -15 -44 8 4
7 1 -2 -10 -7 -9 -11 -26 -8 -37 3 -11 0 -20 -6 -20 -7 0 -5 -5 3 -10 8 -5 15
-14 15 -20 0 -6 5 -14 11 -18 17 -12 23 -39 11 -51 -9 -9 -8 -11 6 -6 9 4 17
11 17 15 0 12 54 -2 65 -16 7 -10 14 -11 25 -3 13 9 12 10 -3 5 -9 -3 -17 -1
-17 4 0 5 15 8 33 7 23 -2 32 -8 31 -20 -1 -9 3 -14 8 -11 5 3 7 12 4 20 -4
12 3 14 34 12 39 -2 47 -7 33 -22 -11 -11 -12 -36 -1 -36 6 0 8 6 5 14 -7 17
21 43 46 43 20 0 22 -8 5 -25 -9 -9 -9 -12 1 -12 7 0 10 -4 7 -8 -3 -5 1 -9 9
-9 10 0 12 4 5 12 -18 22 -1 40 35 41 34 0 43 -15 15 -24 -8 -3 -10 0 -5 9 6
11 5 11 -5 2 -7 -6 -19 -9 -28 -6 -10 4 -13 2 -8 -5 8 -13 46 -12 64 1 9 7 17
6 24 -1 15 -15 32 -16 23 -2 -3 6 -2 10 3 10 18 0 22 -30 4 -31 -11 0 -13 -2
-4 -6 7 -3 24 4 36 16 12 12 25 18 29 15 3 -4 -4 -15 -16 -26 l-22 -19 22 11
c13 6 27 18 32 28 8 14 4 17 -19 17 -16 1 -27 -2 -24 -6 2 -4 0 -10 -5 -13 -5
-3 -12 1 -15 10 -4 10 -13 13 -25 9 -11 -3 -22 -2 -25 3 -2 4 26 8 65 9 l69 0
-5 -31 c-5 -28 -4 -29 9 -14 12 17 14 17 30 0 9 -10 13 -22 9 -27 -5 -5 6 1
23 13 17 12 34 19 36 16 3 -3 8 3 12 12 5 13 0 12 -30 -5 -27 -16 -35 -18 -31
-7 4 11 1 13 -10 9 -10 -4 -14 -2 -9 5 3 6 1 14 -5 18 -8 5 -9 3 -4 -6 5 -9 4
-11 -3 -6 -23 14 -12 23 28 22 22 0 40 -4 40 -8 0 -4 5 -8 11 -8 5 0 8 3 5 8
-2 4 11 8 30 8 26 0 33 -3 29 -14 -3 -7 -5 -16 -5 -18 0 -3 -5 -2 -12 2 -7 4
-8 3 -4 -4 10 -17 26 -15 26 3 0 8 3 14 8 14 20 -3 32 2 26 13 -4 6 -3 8 3 5
5 -3 21 0 36 8 21 11 26 11 31 0 3 -9 0 -12 -10 -8 -7 3 -14 0 -14 -7 0 -6 -5
-8 -10 -5 -6 3 -13 -1 -16 -9 -3 -9 -10 -13 -15 -10 -5 3 -6 -2 -3 -10 7 -18
24 -11 24 10 0 25 39 6 40 -20 0 -5 -6 -3 -14 3 -11 9 -15 8 -20 -5 -8 -21 -8
-24 5 -24 5 0 7 4 4 10 -3 5 -1 10 4 10 6 0 11 -5 11 -11 0 -6 9 -1 20 12 10
13 19 19 20 13 0 -5 -6 -16 -12 -24 -11 -12 -10 -12 5 -1 12 9 15 21 11 35 -6
18 -5 19 9 7 11 -8 15 -23 12 -40 -3 -14 -2 -19 1 -11 8 17 24 30 39 30 5 0 4
-5 -3 -12 -7 -7 -12 -17 -12 -22 0 -6 5 -3 11 7 5 9 17 17 25 17 11 0 14 6 9
23 -6 21 -5 21 9 3 9 -10 20 -15 27 -10 9 5 10 2 6 -9 -4 -12 -2 -14 10 -10
11 4 14 2 9 -5 -5 -8 -2 -10 9 -6 14 6 13 8 -5 21 -11 8 -20 19 -20 25 0 6 9
3 19 -6 11 -10 25 -15 31 -11 6 4 21 -2 33 -13 16 -15 27 -18 37 -12 11 7 11
10 3 11 -7 1 -17 3 -23 4 -5 1 -13 3 -17 4 -5 1 -1 6 7 11 13 8 13 11 1 22
-12 11 -12 10 -6 -2 7 -12 6 -13 -7 -3 -8 7 -18 10 -21 6 -4 -3 -7 -1 -7 6 0
7 -4 10 -9 6 -6 -3 -14 3 -20 12 -6 10 -11 13 -11 7 0 -5 5 -15 11 -21 9 -9 7
-12 -10 -10 -12 1 -20 6 -17 13 3 7 -6 20 -20 28 -13 9 -24 12 -24 7 0 -6 -9
-8 -20 -6 -11 2 -18 0 -15 -5 8 -12 -6 -41 -17 -34 -5 3 -4 11 3 20 9 11 8 14
-2 14 -11 0 -11 3 1 11 13 9 13 10 0 6 -9 -2 -15 -14 -14 -30 1 -19 -3 -25
-17 -24 -21 1 -27 12 -24 46 1 14 9 25 18 27 10 1 15 -2 11 -7 -3 -5 -10 -6
-16 -3 -7 4 -8 2 -4 -4 5 -9 15 -8 36 3 18 9 31 11 35 5 3 -6 11 -10 16 -10 6
0 8 4 5 8 -4 7 39 8 63 3 2 -1 -3 -8 -10 -17 -12 -15 -11 -16 9 -10 15 5 22 3
22 -6 0 -15 29 -21 113 -21 31 0 57 -4 57 -8 0 -4 -11 -6 -24 -3 -17 3 -28 -2
-35 -13 -6 -11 -11 -13 -11 -5 0 7 -5 10 -11 6 -8 -4 -7 -9 2 -15 20 -13 29
-11 29 6 0 8 5 15 11 15 5 0 7 -5 3 -12 -4 -7 -3 -8 5 -4 6 4 14 0 17 -9 5
-12 10 -13 20 -4 10 9 15 8 18 -2 13 -41 14 -43 15 -22 1 12 -3 25 -9 28 -5 3
-10 12 -10 18 1 7 9 2 20 -11 11 -14 21 -18 25 -12 4 6 15 8 26 5 11 -4 19 -2
19 5 0 6 6 8 13 4 9 -5 9 -4 0 6 -7 8 -26 14 -43 15 -23 1 -27 -1 -19 -12 7
-8 8 -13 1 -13 -5 0 -15 7 -22 15 -7 8 -16 12 -21 9 -5 -3 -9 -1 -9 3 0 5 36
9 80 9 44 0 80 -4 80 -8 0 -4 5 -8 11 -8 5 0 8 4 5 8 -3 5 12 9 34 8 21 0 36
-4 34 -8 -3 -5 -1 -8 5 -8 6 0 8 -7 5 -15 -4 -8 -10 -15 -16 -15 -5 0 -7 4 -4
9 10 16 -21 33 -42 22 -20 -11 -40 -10 -59 2 -9 6 -11 3 -7 -8 4 -9 12 -14 19
-11 7 2 22 -2 34 -10 21 -15 27 -9 22 19 -1 5 4 7 11 5 7 -3 13 -11 13 -18 0
-24 22 -21 40 6 9 14 12 23 6 20 -6 -4 -11 -3 -11 3 0 5 9 9 20 8 23 -1 25 -8
9 -24 -6 -6 -8 -16 -5 -22 8 -12 36 -3 36 11 0 6 -6 5 -15 -2 -11 -9 -15 -9
-15 -1 0 6 7 14 15 17 8 4 13 9 10 13 -2 4 3 8 11 8 8 0 13 -6 10 -13 -3 -9 1
-11 11 -7 11 4 14 2 9 -5 -4 -7 -2 -12 3 -12 6 0 11 6 11 13 0 8 4 7 11 -3 8
-12 9 -10 4 8 -4 12 -2 22 3 22 16 0 20 -23 10 -45 -5 -11 2 -6 15 10 20 24
34 32 67 33 32 2 40 0 34 -10 -5 -8 -1 -8 11 2 10 8 20 14 22 13 10 -8 44 -1
57 12 22 22 32 18 11 -5 -10 -11 -15 -23 -12 -27 4 -3 7 -1 7 6 0 7 5 9 10 6
6 -4 7 -11 4 -17 -4 -7 -2 -8 5 -4 9 6 9 11 0 22 -9 11 -7 15 6 20 17 7 17 8
-1 21 -15 11 -16 13 -1 13 9 0 21 -8 26 -17 6 -10 11 -13 11 -6 0 6 -7 18 -15
27 -17 17 -20 46 -5 46 6 0 10 5 10 11 0 5 -5 7 -10 4 -6 -4 -10 7 -10 25 0
75 -86 178 -190 226 l-59 27 29 41 c17 22 30 46 30 53 0 7 4 13 8 13 10 0 44
72 72 154 23 68 44 174 44 229 0 20 3 37 7 37 15 0 136 -55 192 -88 47 -27 66
-33 105 -30 l47 3 3 43 c3 38 -2 51 -39 100 -60 79 -159 182 -177 182 -8 0
-58 44 -111 98 -102 102 -165 200 -176 272 -3 20 -8 47 -10 60 -6 29 -12 81
-20 159 -24 245 -175 461 -392 561 -83 38 -179 64 -225 62 -10 0 -21 4 -24 10
-4 7 -9 6 -14 -1 -5 -8 -14 -9 -33 -2 -15 6 -27 7 -27 2z m46 -2348 c-6 -17
-5 -17 8 0 8 11 20 15 31 11 13 -5 14 -9 3 -16 -10 -7 -10 -11 0 -15 6 -2 12
-9 12 -15 0 -6 -8 -4 -17 4 -23 20 -49 13 -32 -8 14 -17 -2 -19 -19 -2 -9 9
-12 9 -12 -1 0 -7 -4 -9 -10 -6 -12 7 -14 26 -2 24 16 -3 32 1 31 9 -3 15 1
32 7 32 3 0 3 -8 0 -17z m644 -13 c0 -5 -2 -10 -4 -10 -3 0 -8 5 -11 10 -3 6
-1 10 4 10 6 0 11 -4 11 -10z m-730 -21 c0 -14 -17 -10 -23 5 -4 10 -1 13 9 9
7 -3 14 -9 14 -14z m200 1 c0 -5 -4 -10 -10 -10 -5 0 -10 5 -10 10 0 6 5 10
10 10 6 0 10 -4 10 -10z m160 -2 c0 -4 -4 -8 -9 -8 -6 0 -12 4 -15 8 -3 5 1 9
9 9 8 0 15 -4 15 -9z"/>
<path d="M2175 271 c-3 -5 -2 -12 3 -15 5 -3 9 1 9 9 0 17 -3 19 -12 6z"/>
<path d="M245 259 c-3 -4 2 -6 10 -5 21 3 28 13 10 13 -9 0 -18 -4 -20 -8z"/>
<path d="M233 225 c0 -8 4 -12 9 -9 5 3 6 10 3 15 -9 13 -12 11 -12 -6z"/>
<path d="M2206 221 c-8 -12 20 -34 36 -28 8 3 6 6 -5 6 -10 1 -16 5 -12 10 3
5 1 12 -4 15 -5 4 -12 2 -15 -3z"/>
<path d="M2273 218 c3 -9 1 -19 -6 -22 -9 -3 -9 -5 0 -5 18 -1 23 13 11 29 -8
12 -9 12 -5 -2z"/>
<path d="M176 202 c-3 -5 1 -9 9 -9 8 0 12 4 9 9 -3 4 -7 8 -9 8 -2 0 -6 -4
-9 -8z"/>
<path d="M255 200 c3 -5 16 -10 28 -9 21 0 21 1 2 9 -28 12 -37 12 -30 0z"/>
<path d="M2180 203 c0 -13 39 -58 45 -52 2 3 -7 18 -20 33 -14 16 -25 25 -25
19z"/>
<path d="M216 187 c3 -10 9 -15 12 -12 3 3 0 11 -7 18 -10 9 -11 8 -5 -6z"/>
<path d="M247 179 c7 -7 15 -10 18 -7 3 3 -2 9 -12 12 -14 6 -15 5 -6 -5z"/>
<path d="M190 176 c0 -2 8 -10 18 -17 15 -13 16 -12 3 4 -13 16 -21 21 -21 13z"/>
<path d="M1270 166 c7 -7 13 -7 20 0 6 6 3 10 -10 10 -13 0 -16 -4 -10 -10z"/>
<path d="M2237 169 c7 -7 15 -10 18 -7 3 3 -2 9 -12 12 -14 6 -15 5 -6 -5z"/>
<path d="M294 159 c-4 -7 -3 -9 4 -5 5 3 13 0 15 -6 4 -9 6 -10 6 -1 1 17 -16
25 -25 12z"/>
<path d="M245 140 c10 -11 20 -20 22 -20 2 0 -2 9 -9 20 -7 11 -17 20 -22 20
-5 0 -1 -9 9 -20z"/>
<path d="M270 151 c0 -6 4 -13 10 -16 6 -3 7 1 4 9 -7 18 -14 21 -14 7z"/>
<path d="M1155 140 c-3 -5 -1 -10 4 -10 6 0 11 5 11 10 0 6 -2 10 -4 10 -3 0
-8 -4 -11 -10z"/>
<path d="M2246 138 c3 -5 10 -6 15 -3 13 9 11 12 -6 12 -8 0 -12 -4 -9 -9z"/>
<path d="M2158 133 c7 -3 16 -2 19 1 4 3 -2 6 -13 5 -11 0 -14 -3 -6 -6z"/>
<path d="M295 120 c-3 -5 -1 -10 4 -10 6 0 11 5 11 10 0 6 -2 10 -4 10 -3 0
-8 -4 -11 -10z"/>
<path d="M372 96 c1 -14 5 -23 9 -20 7 4 0 44 -7 44 -2 0 -3 -11 -2 -24z"/>
<path d="M457 105 c-4 -8 -3 -16 1 -19 4 -3 9 4 9 15 2 23 -3 25 -10 4z"/>
<path d="M510 115 c0 -7 30 -13 34 -7 3 4 -4 9 -15 9 -10 1 -19 0 -19 -2z"/>
<path d="M590 105 c-7 -9 -8 -15 -2 -15 5 0 12 7 16 15 3 8 4 15 2 15 -2 0 -9
-7 -16 -15z"/>
<path d="M910 116 c0 -2 7 -7 16 -10 8 -3 12 -2 9 4 -6 10 -25 14 -25 6z"/>
<path d="M1970 112 c0 -7 -5 -10 -12 -6 -7 4 -8 3 -4 -5 4 -6 12 -9 17 -6 5 4
9 1 9 -6 0 -7 3 -10 6 -6 3 3 1 14 -5 24 -6 11 -11 13 -11 5z"/>
<path d="M2002 100 c7 -10 14 -18 15 -16 6 6 -9 36 -18 36 -5 0 -4 -9 3 -20z"/>
<path d="M2090 111 c0 -6 4 -13 10 -16 6 -3 7 1 4 9 -7 18 -14 21 -14 7z"/>
<path d="M2216 107 c3 -10 9 -15 12 -12 3 3 0 11 -7 18 -10 9 -11 8 -5 -6z"/>
<path d="M2035 100 c-3 -6 1 -7 9 -4 18 7 21 14 7 14 -6 0 -13 -4 -16 -10z"/>
<path d="M506 83 c-6 -14 -5 -15 5 -6 7 7 10 15 7 18 -3 3 -9 -2 -12 -12z"/>
<path d="M2070 90 c0 -5 5 -10 11 -10 5 0 7 5 4 10 -3 6 -8 10 -11 10 -2 0 -4
-4 -4 -10z"/>
<path d="M710 79 c0 -5 5 -7 12 -3 8 5 9 1 4 -12 -5 -14 -4 -16 5 -7 6 6 8 16
5 22 -9 14 -26 14 -26 0z"/>
<path d="M980 80 c0 -5 5 -10 11 -10 5 0 8 -4 5 -8 -3 -5 1 -9 9 -9 21 0 19
10 -5 25 -12 7 -20 8 -20 2z"/>
<path d="M1050 70 c6 -11 15 -20 20 -20 6 0 2 9 -7 20 -10 11 -19 20 -21 20
-1 0 2 -9 8 -20z"/>
<path d="M2130 79 c0 -5 5 -7 10 -4 6 3 10 8 10 11 0 2 -4 4 -10 4 -5 0 -10
-5 -10 -11z"/>
<path d="M2190 80 c0 -5 5 -10 11 -10 5 0 7 5 4 10 -3 6 -8 10 -11 10 -2 0 -4
-4 -4 -10z"/>
<path d="M469 63 c-13 -16 -12 -17 4 -4 9 7 17 15 17 17 0 8 -8 3 -21 -13z"/>
<path d="M676 66 c10 -8 21 -12 24 -10 5 6 -21 24 -34 24 -6 0 -1 -6 10 -14z"/>
<path d="M1457 73 c-10 -10 -8 -23 4 -23 5 0 8 4 5 9 -4 5 0 12 6 14 7 3 8 6
2 6 -6 1 -14 -2 -17 -6z"/>
<path d="M1613 63 c-10 -10 -14 -15 -8 -11 7 4 14 6 16 4 2 -2 10 2 17 10 18
20 -2 17 -25 -3z"/>
<path d="M1662 72 c2 -8 7 -13 12 -12 5 1 13 -4 18 -12 8 -11 9 -11 6 0 -2 8
-7 13 -12 12 -5 -1 -13 4 -18 12 -8 11 -9 11 -6 0z"/>
<path d="M830 62 c0 -6 9 -12 20 -15 11 -3 20 -3 20 -1 0 2 -9 8 -20 14 -11 6
-20 7 -20 2z"/>
<path d="M950 62 c0 -5 7 -9 15 -9 8 0 12 4 9 9 -3 4 -9 8 -15 8 -5 0 -9 -4
-9 -8z"/>
<path d="M1270 61 c0 -10 19 -25 25 -20 1 2 -3 10 -11 17 -8 7 -14 8 -14 3z"/>
<path d="M1350 60 c0 -5 5 -10 10 -10 6 0 10 5 10 10 0 6 -4 10 -10 10 -5 0
-10 -4 -10 -10z"/>
<path d="M1716 62 c-3 -4 4 -9 15 -9 23 -2 25 3 4 10 -8 4 -16 3 -19 -1z"/>
<path d="M1766 62 c-3 -5 1 -9 9 -9 8 0 15 4 15 9 0 10 -17 10 -24 0z"/>
<path d="M1855 60 c-2 -3 5 -7 16 -7 10 -1 19 2 19 6 0 9 -29 10 -35 1z"/>
<path d="M1920 60 c-9 -6 -10 -10 -3 -10 6 0 15 5 18 10 8 12 4 12 -15 0z"/>
<path d="M1950 59 c0 -5 5 -7 10 -4 6 3 10 8 10 11 0 2 -4 4 -10 4 -5 0 -10
-5 -10 -11z"/>
<path d="M1980 66 c0 -2 8 -10 18 -17 15 -13 16 -12 3 4 -13 16 -21 21 -21 13z"/>
<path d="M1557 49 c7 -7 15 -10 18 -7 3 3 -2 9 -12 12 -14 6 -15 5 -6 -5z"/>
<path d="M627 39 c7 -7 15 -10 18 -7 3 3 -2 9 -12 12 -14 6 -15 5 -6 -5z"/>
<path d="M790 36 c7 -7 13 -7 20 0 6 6 3 10 -10 10 -13 0 -16 -4 -10 -10z"/>
<path d="M1030 41 c0 -5 8 -15 18 -22 15 -12 16 -12 5 2 -7 9 -10 19 -6 22 3
4 1 7 -5 7 -7 0 -12 -4 -12 -9z"/>
<path d="M1155 39 c-4 -6 -5 -12 -2 -15 2 -3 7 2 10 11 7 17 1 20 -8 4z"/>
<path d="M1233 35 c0 -8 4 -12 9 -9 5 3 6 10 3 15 -9 13 -12 11 -12 -6z"/>
<path d="M1640 40 c-9 -6 -10 -10 -3 -10 6 0 15 5 18 10 8 12 4 12 -15 0z"/>
<path d="M1735 29 c-4 -6 -5 -12 -2 -15 2 -3 7 2 10 11 7 17 1 20 -8 4z"/>
<path d="M1534 22 c4 -3 14 -7 22 -8 9 -1 13 0 10 4 -4 3 -14 7 -22 8 -9 1
-13 0 -10 -4z"/>
</g>
</svg>
